<?xml version="1.0" encoding="UTF-8" standalone="no"?>
<!-- Generator: Adobe Illustrator 15.1.0, SVG Export Plug-In  -->

<svg
   xmlns:a="http://ns.adobe.com/AdobeSVGViewerExtensions/3.0/"
   xmlns:dc="http://purl.org/dc/elements/1.1/"
   xmlns:cc="http://creativecommons.org/ns#"
   xmlns:rdf="http://www.w3.org/1999/02/22-rdf-syntax-ns#"
   xmlns:svg="http://www.w3.org/2000/svg"
   xmlns="http://www.w3.org/2000/svg"
   xmlns:xlink="http://www.w3.org/1999/xlink"
   xmlns:sodipodi="http://sodipodi.sourceforge.net/DTD/sodipodi-0.dtd"
   xmlns:inkscape="http://www.inkscape.org/namespaces/inkscape"
   version="1.1"
   x="0px"
   y="0px"
   width="522.81641"
   height="508.51111"
   viewBox="-0.3 -0.9 522.81641 508.51111"
   overflow="visible"
   enable-background="new -0.3 -0.9 600 887"
   xml:space="preserve"
   id="svg2"
   inkscape:version="0.91 r13725"
   sodipodi:docname="o4i-ng.svg"
   style="overflow:visible"
   inkscape:export-filename="/home/ho9052/mnt/nfs/opsiproducts/o4i-logo/o4i-ng.png"
   inkscape:export-xdpi="90"
   inkscape:export-ydpi="90"><metadata
     id="metadata147"><rdf:RDF><cc:Work
         rdf:about=""><dc:format>image/svg+xml</dc:format><dc:type
           rdf:resource="http://purl.org/dc/dcmitype/StillImage" /><dc:title /></cc:Work></rdf:RDF></metadata><sodipodi:namedview
     pagecolor="#ffffff"
     bordercolor="#666666"
     borderopacity="1"
     objecttolerance="10"
     gridtolerance="10"
     guidetolerance="10"
     inkscape:pageopacity="0"
     inkscape:pageshadow="2"
     inkscape:window-width="1278"
     inkscape:window-height="974"
     id="namedview145"
     showgrid="false"
     inkscape:zoom="0.86884101"
     inkscape:cx="235.6257"
     inkscape:cy="77.856383"
     inkscape:window-x="1280"
     inkscape:window-y="25"
     inkscape:window-maximized="0"
     inkscape:current-layer="svg2"
     showguides="true"
     inkscape:guide-bbox="true"
     fit-margin-top="0"
     fit-margin-left="0"
     fit-margin-right="0"
     fit-margin-bottom="0"
     inkscape:snap-page="false" /><defs
     id="defs4"><radialGradient
       inkscape:collect="always"
       xlink:href="#SVGID_5_"
       id="radialGradient3867"
       gradientUnits="userSpaceOnUse"
       gradientTransform="translate(-11.275424,78.927966)"
       cx="382.35159"
       cy="262.353"
       r="220.47279" /><radialGradient
       inkscape:collect="always"
       xlink:href="#SVGID_5_"
       id="radialGradient3992"
       gradientUnits="userSpaceOnUse"
       gradientTransform="translate(-11.275424,78.927966)"
       cx="382.35159"
       cy="262.353"
       r="220.47279" /></defs><radialGradient
     id="SVGID_1_"
     cx="559.93652"
     cy="357.0181"
     r="35.852798"
     gradientUnits="userSpaceOnUse"><stop
       offset="0"
       style="stop-color:#DAB5BC"
       id="stop25" /><stop
       offset="5.458093e-02"
       style="stop-color:#D6ABB3"
       id="stop27" /><stop
       offset="0.284"
       style="stop-color:#C68091"
       id="stop29" /><stop
       offset="0.5007"
       style="stop-color:#BA5877"
       id="stop31" /><stop
       offset="0.6986"
       style="stop-color:#B33A67"
       id="stop33" /><stop
       offset="0.8714"
       style="stop-color:#AF245E"
       id="stop35" /><stop
       offset="1"
       style="stop-color:#AE195B"
       id="stop37" /><a:midPointStop
       offset="0"
       style="stop-color:#DAB5BC" /><a:midPointStop
       offset="0.3558"
       style="stop-color:#DAB5BC" /><a:midPointStop
       offset="1"
       style="stop-color:#AE195B" /></radialGradient><radialGradient
     id="SVGID_2_"
     cx="556.74799"
     cy="293.707"
     r="19.791901"
     gradientUnits="userSpaceOnUse"><stop
       offset="0"
       style="stop-color:#C98A99"
       id="stop42" /><stop
       offset="7.645088e-02"
       style="stop-color:#C67F91"
       id="stop44" /><stop
       offset="0.3544"
       style="stop-color:#BA5877"
       id="stop46" /><stop
       offset="0.6103"
       style="stop-color:#B33A67"
       id="stop48" /><stop
       offset="0.8337"
       style="stop-color:#AF245E"
       id="stop50" /><stop
       offset="1"
       style="stop-color:#AE195B"
       id="stop52" /><a:midPointStop
       offset="0"
       style="stop-color:#C98A99" /><a:midPointStop
       offset="0.3558"
       style="stop-color:#C98A99" /><a:midPointStop
       offset="1"
       style="stop-color:#AE195B" /></radialGradient><radialGradient
     id="SVGID_3_"
     cx="62.108898"
     cy="357.0181"
     r="35.852299"
     gradientUnits="userSpaceOnUse"><stop
       offset="0"
       style="stop-color:#DAB5BC"
       id="stop57" /><stop
       offset="5.458093e-02"
       style="stop-color:#D6ABB3"
       id="stop59" /><stop
       offset="0.284"
       style="stop-color:#C68091"
       id="stop61" /><stop
       offset="0.5007"
       style="stop-color:#BA5877"
       id="stop63" /><stop
       offset="0.6986"
       style="stop-color:#B33A67"
       id="stop65" /><stop
       offset="0.8714"
       style="stop-color:#AF245E"
       id="stop67" /><stop
       offset="1"
       style="stop-color:#AE195B"
       id="stop69" /><a:midPointStop
       offset="0"
       style="stop-color:#DAB5BC" /><a:midPointStop
       offset="0.3558"
       style="stop-color:#DAB5BC" /><a:midPointStop
       offset="1"
       style="stop-color:#AE195B" /></radialGradient><radialGradient
     id="SVGID_4_"
     cx="58.9175"
     cy="293.707"
     r="19.792101"
     gradientUnits="userSpaceOnUse"><stop
       offset="0"
       style="stop-color:#C98A99"
       id="stop74" /><stop
       offset="7.645088e-02"
       style="stop-color:#C67F91"
       id="stop76" /><stop
       offset="0.3544"
       style="stop-color:#BA5877"
       id="stop78" /><stop
       offset="0.6103"
       style="stop-color:#B33A67"
       id="stop80" /><stop
       offset="0.8337"
       style="stop-color:#AF245E"
       id="stop82" /><stop
       offset="1"
       style="stop-color:#AE195B"
       id="stop84" /><a:midPointStop
       offset="0"
       style="stop-color:#C98A99" /><a:midPointStop
       offset="0.3558"
       style="stop-color:#C98A99" /><a:midPointStop
       offset="1"
       style="stop-color:#AE195B" /></radialGradient><radialGradient
     id="SVGID_5_"
     cx="382.35159"
     cy="262.353"
     r="220.47279"
     gradientUnits="userSpaceOnUse"
     gradientTransform="translate(-11.275424,78.927966)"><stop
       offset="0"
       style="stop-color:#FFFFFF"
       id="stop97" /><stop
       offset="6.640629e-02"
       style="stop-color:#FFFFFF"
       id="stop99" /><stop
       offset="0.7773"
       style="stop-color:#BFC6E0"
       id="stop101" /><stop
       offset="1"
       style="stop-color:#BFC6E0"
       id="stop103" /><a:midPointStop
       offset="0"
       style="stop-color:#FFFFFF" /><a:midPointStop
       offset="0.5"
       style="stop-color:#FFFFFF" /><a:midPointStop
       offset="6.640629e-02"
       style="stop-color:#FFFFFF" /><a:midPointStop
       offset="0.5"
       style="stop-color:#FFFFFF" /><a:midPointStop
       offset="0.7773"
       style="stop-color:#BFC6E0" /><a:midPointStop
       offset="0.5"
       style="stop-color:#BFC6E0" /><a:midPointStop
       offset="1"
       style="stop-color:#BFC6E0" /></radialGradient><radialGradient
     id="SVGID_6_"
     cx="313"
     cy="82.427696"
     r="35.856701"
     gradientUnits="userSpaceOnUse"><stop
       offset="0"
       style="stop-color:#DAB5BC"
       id="stop114" /><stop
       offset="5.458093e-02"
       style="stop-color:#D6ABB3"
       id="stop116" /><stop
       offset="0.284"
       style="stop-color:#C68091"
       id="stop118" /><stop
       offset="0.5007"
       style="stop-color:#BA5877"
       id="stop120" /><stop
       offset="0.6986"
       style="stop-color:#B33A67"
       id="stop122" /><stop
       offset="0.8714"
       style="stop-color:#AF245E"
       id="stop124" /><stop
       offset="1"
       style="stop-color:#AE195B"
       id="stop126" /><a:midPointStop
       offset="0"
       style="stop-color:#DAB5BC" /><a:midPointStop
       offset="0.3558"
       style="stop-color:#DAB5BC" /><a:midPointStop
       offset="1"
       style="stop-color:#AE195B" /></radialGradient><radialGradient
     id="SVGID_7_"
     cx="309.8154"
     cy="19.127001"
     r="19.790501"
     gradientUnits="userSpaceOnUse"><stop
       offset="0"
       style="stop-color:#C98A99"
       id="stop131" /><stop
       offset="7.645088e-02"
       style="stop-color:#C67F91"
       id="stop133" /><stop
       offset="0.3544"
       style="stop-color:#BA5877"
       id="stop135" /><stop
       offset="0.6103"
       style="stop-color:#B33A67"
       id="stop137" /><stop
       offset="0.8337"
       style="stop-color:#AF245E"
       id="stop139" /><stop
       offset="1"
       style="stop-color:#AE195B"
       id="stop141" /><a:midPointStop
       offset="0"
       style="stop-color:#C98A99" /><a:midPointStop
       offset="0.3558"
       style="stop-color:#C98A99" /><a:midPointStop
       offset="1"
       style="stop-color:#AE195B" /></radialGradient><text
     xml:space="preserve"
     style="font-size:40px;font-style:normal;font-weight:normal;line-height:125%;letter-spacing:0px;word-spacing:0px;fill:#000000;fill-opacity:1;stroke:none;font-family:Sans"
     x="228.65054"
     y="465.02856"
     id="text3039"
     sodipodi:linespacing="125%"><tspan
       sodipodi:role="line"
       id="tspan3041"
       x="228.65054"
       y="465.02856" /></text>
<g
     id="g3861"
     transform="translate(-33.428802,-155.15937)"
     inkscape:export-xdpi="90"
     inkscape:export-ydpi="90"><path
       inkscape:connector-curvature="0"
       style="clip-rule:evenodd;fill:url(#radialGradient3992);fill-rule:evenodd"
       id="path105"
       d="m 293.92458,304.42797 c -67.2,0 -121.7,54.5 -121.7,121.7 0,67.2 54.5,121.7 121.7,121.7 67.2,0 121.7,-54.5 121.7,-121.7 0,-67.2 -54.4,-121.7 -121.7,-121.7 z" /><path
       style="fill:#ae195b"
       inkscape:connector-curvature="0"
       id="path107"
       d="m 277.92458,361.12797 c -13.2,1.2 -16.6,0.9 -18.9,-0.8 -2.2,-1.5 -4.7,-4.2 -4.7,-6.4 7.5,-8.4 16.1,-12 33.9,-14.4 15,-2.1 44.7,-4 67.9,9.9 1.3,4.5 2.3,12.3 2.4,20.3 0.2,32.4 -10.9,65.3 -17.3,79.2 -1.5,0.8 -2,1.1 -3.3,2.3 -1.3,1.2 -2.1,2.2 -3.4,3.1 -6.7,4.4 -24,7.9 -37.6,7.8 -18,-0.2 -22.4,-2.3 -36.3,-5.9 -4.9,-1.2 -11.3,-4.6 -12.4,-3.5 -18,-6.8 -23.5,-46.5 -23.9,-57.7 -0.7,-18 4.3,-46.2 16,-54.7 5,-3.7 15.2,-4.4 15.2,-3.3 0.1,2.5 -7.5,22.7 -9,28.4 -6.6,25.2 0.1,54.7 0.4,62 10.1,3.4 34.1,11.8 57.1,9 9,-1.1 21.5,-4.7 22.6,-5.2 0,0 2.9,-18.3 5.1,-33.7 1.7,-12.2 5,-32.9 5,-32.9 0,0 -32.4,-5.9 -58.8,-3.5 z" /><path
       style="fill:#ae195b"
       inkscape:connector-curvature="0"
       id="path109"
       d="m 218.12458,481.92797 c -1.5,0 -10.9,5.6 -10.9,10.4 0.9,9.8 60.7,34.2 103.6,29.6 56.5,-6 45.2,-16 67.5,-28.8 -0.1,-2.4 1.9,-6.5 0,-7.8 -1.1,-0.7 -4.5,-0.5 -5.6,-0.4 0,0 -40.2,8.2 -81.7,6.9 -35.8,-1.1 -65.2,-9.8 -72.9,-9.9 z" /><path
       style="fill:#1f6bae"
       inkscape:connector-curvature="0"
       id="path111"
       d="m 473.32458,428.92797 c 0,0 -16.6,-11.2 -28.7,-15.7 -4.1,-1.5 -8,-2.6 -11.5,-3.4 -7.6,-63.6 -57.3,-114.2 -120.4,-123.2 -1,-3.4 -2.2,-7.2 -3.7,-11.2 -4.5,-12.1 -13.9,-28.7 -13.9,-28.7 0,0 -2.7,3.1 -5.9,8.5 -2.1,3.4 -10.3,18.9 -14.7,31.2 -65,8.3 -116.2,60.7 -122.7,126.2 -2.7,0.8 -5.7,1.8 -8.8,2.9 -12.1,4.5 -28.7,14 -28.7,14 0,0 3.1,2.7 8.5,5.9 3.3,2 18.1,9.9 30.2,14.3 11,67.2 69.3,118.5 139.6,118.5 70.2,0 128.4,-51.1 139.6,-118.2 12.4,-4.2 29.1,-13 32.6,-15.2 5.4,-3.3 8.5,-5.9 8.5,-5.9 z m -179.4,118.9 c -67.2,0 -121.7,-54.5 -121.7,-121.7 0,-67.2 54.5,-121.7 121.7,-121.7 67.2,0 121.7,54.5 121.7,121.7 0,67.2 -54.4,121.7 -121.7,121.7 z" /></g><g
     style="font-style:normal;font-weight:normal;font-size:40px;line-height:125%;font-family:Sans;letter-spacing:0px;word-spacing:0px;fill:#ae195b;fill-opacity:1;stroke:none"
     id="text3929"
     inkscape:export-xdpi="90"
     inkscape:export-ydpi="90"
     transform="translate(-22.712418,4)"><path
       inkscape:connector-curvature="0"
       d="m 279.72929,14.578514 -20.60546,30.517578 20.60546,0 0,-30.517578 m -3.125,-15.47851553 20.89844,0 0,45.99609353 10.40039,0 0,13.623047 -10.40039,0 0,13.28125 -17.77344,0 0,-13.28125 -32.32421,0 0,-16.113281 29.19921,-43.50585953"
       style="font-weight:bold;font-size:100px;-inkscape-font-specification:'Sans Bold';fill:#ae195b"
       id="path3095" /></g><g
     style="font-style:normal;font-weight:normal;font-size:40px;line-height:125%;font-family:Sans;letter-spacing:0px;word-spacing:0px;fill:#1f6bae;fill-opacity:1;stroke:none"
     id="text3929-2"
     inkscape:export-xdpi="90"
     inkscape:export-ydpi="90"
     transform="translate(-14.712418,0)"><path
       inkscape:connector-curvature="0"
       d="m 51.062405,256.14984 c -3.873729,4e-5 -6.835965,1.39978 -8.886719,4.19922 -2.018253,2.76696 -3.027366,6.77087 -3.027344,12.01172 -2.2e-5,5.24091 1.009091,9.26108 3.027344,12.06055 2.050754,2.76694 5.01299,4.1504 8.886719,4.15039 3.808555,10e-6 6.721964,-1.38345 8.740234,-4.15039 2.018184,-2.79947 3.027298,-6.81964 3.027344,-12.06055 -4.6e-5,-5.24085 -1.00916,-9.24476 -3.027344,-12.01172 -2.01827,-2.79944 -4.931679,-4.19918 -8.740234,-4.19922 m 0,-12.5 c 9.407508,6e-5 16.747995,2.53912 22.021484,7.61719 5.305928,5.07817 7.95892,12.10941 7.958984,21.09375 -6.4e-5,8.98439 -2.653056,16.01564 -7.958984,21.09375 -5.273489,5.07812 -12.613976,7.61718 -22.021484,7.61719 -9.44013,-1e-5 -16.829445,-2.53907 -22.167969,-7.61719 -5.305997,-5.07811 -7.958989,-12.10936 -7.958984,-21.09375 -5e-6,-8.98434 2.652987,-16.01558 7.958984,-21.09375 5.338524,-5.07807 12.727839,-7.61713 22.167969,-7.61719"
       style="font-weight:bold;font-size:100px;-inkscape-font-specification:'Sans Bold';fill:#1f6bae"
       id="path3092" /></g><g
     style="font-style:normal;font-weight:normal;font-size:40px;line-height:125%;font-family:Sans;letter-spacing:0px;word-spacing:0px;fill:#000000;fill-opacity:1;stroke:none"
     id="text3929-1"
     inkscape:export-xdpi="90"
     inkscape:export-ydpi="90"
     transform="translate(-18.712418,0)"><path
       inkscape:connector-curvature="0"
       d="m 483.80048,256.41034 17.48046,0 0,54.6875 -17.48046,0 0,-54.6875 m 0,-21.28906 17.48046,0 0,14.25781 -17.48046,0 0,-14.25781"
       style="font-weight:bold;font-size:100px;-inkscape-font-specification:'Sans Bold';fill:#000000"
       id="path3098" /></g><g
     id="g3428"><g
       inkscape:export-ydpi="90"
       inkscape:export-xdpi="90"
       id="text3129"
       style="font-size:40px;font-style:normal;font-weight:normal;line-height:125%;letter-spacing:0px;word-spacing:0px;fill:#000000;fill-opacity:1;stroke:none;font-family:Sans"><path
         id="path3229"
         style="font-size:68px;font-weight:bold;-inkscape-font-specification:Sans Bold"
         d="m 208.03006,456.42148 11.88672,0 0,37.1875 -11.88672,0 0,-37.1875 m 0,-14.47656 11.88672,0 0,9.69531 -11.88672,0 0,-9.69531" /><path
         id="path3231"
         style="font-size:68px;font-weight:bold;-inkscape-font-specification:Sans Bold"
         d="m 268.79178,470.96445 0,22.64453 -11.95313,0 0,-3.68555 0,-13.64648 c -3e-5,-3.20962 -0.0775,-5.42316 -0.23242,-6.64063 -0.13284,-1.21742 -0.37633,-2.1139 -0.73047,-2.68945 -0.46487,-0.77471 -1.09573,-1.37237 -1.89258,-1.79297 -0.7969,-0.44268 -1.70445,-0.66403 -2.72265,-0.66406 -2.47919,3e-5 -4.42711,0.96292 -5.84375,2.88867 -1.41669,1.90367 -2.12502,4.54885 -2.125,7.93555 l 0,18.29492 -11.88672,0 0,-37.1875 11.88672,0 0,5.44531 c 1.79295,-2.16924 3.69659,-3.76298 5.71094,-4.78125 2.01429,-1.04033 4.2389,-1.56051 6.67382,-1.56055 4.29424,4e-5 7.54814,1.3171 9.76172,3.95118 2.23564,2.63414 3.35348,6.46357 3.35352,11.48828" /><path
         id="path3233"
         style="font-size:68px;font-weight:bold;-inkscape-font-specification:Sans Bold"
         d="m 308.93436,457.58359 0,9.03125 c -2.54561,-1.06247 -5.00264,-1.85935 -7.3711,-2.39063 -2.36851,-0.53122 -4.60419,-0.79684 -6.70703,-0.79687 -2.25783,3e-5 -3.94012,0.28779 -5.04687,0.86328 -1.08465,0.55341 -1.62697,1.41669 -1.62696,2.58984 -10e-6,0.95185 0.40949,1.68232 1.22852,2.19141 0.84113,0.50914 2.33527,0.88544 4.48242,1.12891 l 2.0918,0.29882 c 6.08721,0.77477 10.18226,2.04755 12.28515,3.81836 2.10283,1.77085 3.15426,4.54885 3.1543,8.33399 -4e-5,3.96224 -1.46097,6.93945 -4.38281,8.93164 -2.92191,1.99219 -7.28258,2.98828 -13.08203,2.98828 -2.45705,0 -5.00262,-0.19922 -7.63672,-0.59766 -2.61199,-0.3763 -5.30144,-0.95182 -8.06836,-1.72656 l 0,-9.03125 c 2.36848,1.15105 4.79231,2.01433 7.27148,2.58984 2.50129,0.57553 5.03579,0.86329 7.60352,0.86329 2.3242,0 4.07289,-0.32096 5.24609,-0.9629 1.17315,-0.64191 1.75974,-1.59374 1.75977,-2.85546 -3e-5,-1.06249 -0.40953,-1.8483 -1.22852,-2.35743 -0.7969,-0.53123 -2.40171,-0.94074 -4.81445,-1.22851 l -2.0918,-0.26563 c -5.29037,-0.66404 -8.99805,-1.89256 -11.12304,-3.68554 -2.12501,-1.79295 -3.18751,-4.51561 -3.1875,-8.16797 -1e-5,-3.94008 1.35025,-6.86195 4.05078,-8.76563 2.70051,-1.90361 6.83983,-2.85543 12.41797,-2.85547 2.19138,4e-5 4.49346,0.16606 6.90625,0.49805 2.41273,0.33207 5.03577,0.85225 7.86914,1.56055" /><path
         id="path3235"
         style="font-size:68px;font-weight:bold;-inkscape-font-specification:Sans Bold"
         d="m 333.37186,445.86288 0,10.5586 12.25195,0 0,8.5 -12.25195,0 0,15.77148 c -2e-5,1.72658 0.34308,2.89975 1.02929,3.51953 0.68618,0.59767 2.04751,0.8965 4.08399,0.89649 l 6.10937,0 0,8.5 -10.19336,0 c -4.69272,0 -8.0241,-0.97396 -9.99414,-2.92188 -1.94792,-1.97004 -2.92188,-5.30142 -2.92187,-9.99414 l 0,-15.77148 -5.91016,0 0,-8.5 5.91016,0 0,-10.5586 11.88672,0" /><path
         id="path3237"
         style="font-size:68px;font-weight:bold;-inkscape-font-specification:Sans Bold"
         d="m 352.9285,456.42148 11.88672,0 0,37.1875 -11.88672,0 0,-37.1875 m 0,-14.47656 11.88672,0 0,9.69531 -11.88672,0 0,-9.69531" /><path
         id="path3239"
         style="font-size:68px;font-weight:bold;-inkscape-font-specification:Sans Bold"
         d="m 389.28592,445.86288 0,10.5586 12.25195,0 0,8.5 -12.25195,0 0,15.77148 c -2e-5,1.72658 0.34308,2.89975 1.0293,3.51953 0.68617,0.59767 2.0475,0.8965 4.08398,0.89649 l 6.10938,0 0,8.5 -10.19336,0 c -4.69273,0 -8.0241,-0.97396 -9.99414,-2.92188 -1.94793,-1.97004 -2.92189,-5.30142 -2.92188,-9.99414 l 0,-15.77148 -5.91016,0 0,-8.5 5.91016,0 0,-10.5586 11.88672,0" /><path
         id="path3241"
         style="font-size:68px;font-weight:bold;-inkscape-font-specification:Sans Bold"
         d="m 408.44412,479.13242 0,-22.71094 11.95313,0 0,3.71875 c -2e-5,2.01435 -0.0111,4.54886 -0.0332,7.60351 -0.0222,3.03258 -0.0332,5.05797 -0.0332,6.07618 -2e-5,2.98829 0.0775,5.14649 0.23242,6.47461 0.15493,1.306 0.42056,2.25782 0.79688,2.85546 0.48696,0.77475 1.11782,1.37241 1.89258,1.79297 0.79685,0.42058 1.7044,0.63087 2.72265,0.63086 2.47914,10e-6 4.42706,-0.95181 5.84375,-2.85547 1.41664,-1.90363 2.12497,-4.54881 2.125,-7.93554 l 0,-18.36133 11.88672,0 0,37.1875 -11.88672,0 0,-5.37891 c -1.793,2.16928 -3.69664,3.77409 -5.71094,4.81446 -1.99221,1.01822 -4.19468,1.52734 -6.60742,1.52734 -4.29428,0 -7.57032,-1.31706 -9.82812,-3.95117 -2.23569,-2.63411 -3.35352,-6.46354 -3.35352,-11.48828" /><path
         id="path3243"
         style="font-size:68px;font-weight:bold;-inkscape-font-specification:Sans Bold"
         d="m 470.30154,445.86288 0,10.5586 12.25196,0 0,8.5 -12.25196,0 0,15.77148 c -10e-6,1.72658 0.34308,2.89975 1.0293,3.51953 0.68618,0.59767 2.04751,0.8965 4.08399,0.89649 l 6.10937,0 0,8.5 -10.19336,0 c -4.69272,0 -8.0241,-0.97396 -9.99414,-2.92188 -1.94792,-1.97004 -2.92188,-5.30142 -2.92187,-9.99414 l 0,-15.77148 -5.91016,0 0,-8.5 5.91016,0 0,-10.5586 11.88671,0" /><path
         id="path3245"
         style="font-size:68px;font-weight:bold;-inkscape-font-specification:Sans Bold"
         d="m 518.91092,457.58359 0,9.03125 c -2.54561,-1.06247 -5.00263,-1.85935 -7.37109,-2.39063 -2.36852,-0.53122 -4.60419,-0.79684 -6.70704,-0.79687 -2.25783,3e-5 -3.94012,0.28779 -5.04687,0.86328 -1.08465,0.55341 -1.62697,1.41669 -1.62695,2.58984 -2e-5,0.95185 0.40949,1.68232 1.22851,2.19141 0.84113,0.50914 2.33527,0.88544 4.48242,1.12891 l 2.0918,0.29882 c 6.08721,0.77477 10.18226,2.04755 12.28516,3.81836 2.10283,1.77085 3.15426,4.54885 3.15429,8.33399 -3e-5,3.96224 -1.46097,6.93945 -4.38281,8.93164 -2.9219,1.99219 -7.28258,2.98828 -13.08203,2.98828 -2.45705,0 -5.00262,-0.19922 -7.63672,-0.59766 -2.61199,-0.3763 -5.30144,-0.95182 -8.06836,-1.72656 l 0,-9.03125 c 2.36848,1.15105 4.79231,2.01433 7.27149,2.58984 2.50128,0.57553 5.03579,0.86329 7.60351,0.86329 2.3242,0 4.0729,-0.32096 5.2461,-0.9629 1.17315,-0.64191 1.75974,-1.59374 1.75976,-2.85546 -2e-5,-1.06249 -0.40953,-1.8483 -1.22851,-2.35743 -0.7969,-0.53123 -2.40172,-0.94074 -4.81446,-1.22851 l -2.09179,-0.26563 c -5.29038,-0.66404 -8.99806,-1.89256 -11.12305,-3.68554 -2.12501,-1.79295 -3.1875,-4.51561 -3.1875,-8.16797 0,-3.94008 1.35025,-6.86195 4.05078,-8.76563 2.70051,-1.90361 6.83983,-2.85543 12.41797,-2.85547 2.19138,4e-5 4.49346,0.16606 6.90625,0.49805 2.41273,0.33207 5.03577,0.85225 7.86914,1.56055" /></g><g
       inkscape:export-ydpi="90"
       inkscape:export-xdpi="90"
       id="text3035-6"
       style="font-size:34.38792418999999967px;font-style:normal;font-weight:bold;line-height:125%;letter-spacing:0px;word-spacing:0px;fill:#ae195b;fill-opacity:1;stroke:none;overflow:visible;font-family:Sans;-inkscape-font-specification:Sans Bold"><path
         id="path3226"
         style="fill:#ae195b;fill-opacity:1"
         d="m 180.95328,454.83014 -14.01172,20.75195 14.01172,0 0,-20.75195 m -2.125,-10.52539 14.21094,0 0,31.27734 7.07226,0 0,9.26367 -7.07226,0 0,9.03125 -12.08594,0 0,-9.03125 -21.98047,0 0,-10.95703 19.85547,-29.58398" /></g><g
       inkscape:export-ydpi="90"
       inkscape:export-xdpi="90"
       id="text3035-7"
       style="font-size:34.38792419px;font-style:normal;font-weight:bold;line-height:125%;letter-spacing:0px;word-spacing:0px;fill:#1f6bae;fill-opacity:1;stroke:none;overflow:visible;font-family:Sans;-inkscape-font-specification:Sans Bold"><path
         id="path3217"
         style="font-size:68px;fill:#1f6bae"
         d="m 19.876734,464.66437 c -2.634135,3e-5 -4.648456,0.95185 -6.042969,2.85547 -1.372412,1.88153 -2.058609,4.60419 -2.058593,8.16797 -1.6e-5,3.56381 0.686181,6.29753 2.058593,8.20117 1.394513,1.88152 3.408834,2.82227 6.042969,2.82226 2.589818,1e-5 4.570936,-0.94074 5.943359,-2.82226 1.372366,-1.90364 2.058563,-4.63736 2.058594,-8.20117 -3.1e-5,-3.56378 -0.686228,-6.28644 -2.058594,-8.16797 -1.372423,-1.90362 -3.353541,-2.85544 -5.943359,-2.85547 m 0,-8.5 c 6.397106,4e-5 11.388637,1.7266 14.974609,5.17969 3.608031,3.45315 5.412066,8.23439 5.41211,14.34375 -4.4e-5,6.10938 -1.804079,10.89063 -5.41211,14.34375 -3.585972,3.45312 -8.577503,5.17968 -14.974609,5.17968 -6.419288,0 -11.4440224,-1.72656 -15.0742187,-5.17968 -3.6080777,-3.45312 -5.41211233,-8.23437 -5.41210941,-14.34375 -2.92e-6,-6.10936 1.80403171,-10.8906 5.41210941,-14.34375 3.6301963,-3.45309 8.6549307,-5.17965 15.0742187,-5.17969" /><path
         id="path3219"
         style="font-size:68px;fill:#1f6bae"
         d="m 60.816187,488.86945 0,19.52343 -11.886719,0 0,-51.33203 11.886719,0 0,5.44531 c 1.638002,-2.16923 3.453104,-3.76298 5.445313,-4.78125 1.992162,-1.04032 4.283175,-1.5605 6.873047,-1.56054 4.581996,4e-5 8.345013,1.82621 11.289062,5.47851 2.943966,3.63024 4.41597,8.31188 4.416016,14.04493 -4.6e-5,5.73308 -1.47205,10.42578 -4.416016,14.07812 -2.944049,3.63021 -6.707066,5.44531 -11.289062,5.44531 -2.589872,0 -4.880885,-0.50911 -6.873047,-1.52734 -1.992209,-1.04036 -3.807311,-2.64518 -5.445313,-4.81445 m 7.902344,-24.07227 c -2.545596,3e-5 -4.504578,0.94078 -5.876953,2.82227 -1.350279,1.8594 -2.025408,4.54885 -2.025391,8.06836 -1.7e-5,3.51954 0.675112,6.22006 2.025391,8.10156 1.372375,1.85938 3.331357,2.78907 5.876953,2.78906 2.545545,10e-6 4.482392,-0.92968 5.810547,-2.78906 1.350228,-1.85937 2.025357,-4.55988 2.02539,-8.10156 -3.3e-5,-3.54165 -0.675162,-6.24217 -2.02539,-8.10157 -1.328155,-1.85934 -3.265002,-2.78903 -5.810547,-2.78906" /><path
         id="path3221"
         style="font-size:68px;fill:#1f6bae"
         d="m 126.72439,458.22296 0,9.03125 c -2.5456,-1.06247 -5.00263,-1.85934 -7.37109,-2.39062 -2.36852,-0.53122 -4.60419,-0.79685 -6.70703,-0.79688 -2.25784,3e-5 -3.94013,0.28779 -5.04688,0.86328 -1.08465,0.55342 -1.62697,1.4167 -1.62695,2.58985 -2e-5,0.95185 0.40949,1.68231 1.22851,2.1914 0.84113,0.50914 2.33527,0.88544 4.48242,1.12891 l 2.0918,0.29883 c 6.08721,0.77476 10.18226,2.04754 12.28516,3.81836 2.10283,1.77085 3.15426,4.54884 3.15429,8.33398 -3e-5,3.96225 -1.46097,6.93946 -4.38281,8.93164 -2.9219,1.99219 -7.28258,2.98828 -13.08203,2.98828 -2.45705,0 -5.00262,-0.19922 -7.63672,-0.59765 -2.61199,-0.37631 -5.301437,-0.95183 -8.068357,-1.72657 l 0,-9.03125 c 2.368483,1.15105 4.792307,2.01434 7.271487,2.58985 2.50129,0.57553 5.03579,0.86329 7.60351,0.86328 2.3242,1e-5 4.0729,-0.32096 5.2461,-0.96289 1.17315,-0.64192 1.75974,-1.59374 1.75976,-2.85547 -2e-5,-1.06249 -0.40953,-1.8483 -1.22851,-2.35742 -0.7969,-0.53124 -2.40172,-0.94074 -4.81446,-1.22852 l -2.09179,-0.26562 c -5.29038,-0.66405 -8.99806,-1.89256 -11.12305,-3.68555 -2.125005,-1.79295 -3.187504,-4.5156 -3.1875,-8.16797 -4e-6,-3.94007 1.350255,-6.86194 4.050781,-8.76562 2.700509,-1.90361 6.839829,-2.85543 12.417969,-2.85547 2.19138,4e-5 4.49346,0.16605 6.90625,0.49804 2.41273,0.33207 5.03578,0.85225 7.86914,1.56055" /><path
         id="path3223"
         style="font-size:68px;fill:#1f6bae"
         d="m 138.17947,457.06085 11.88672,0 0,37.1875 -11.88672,0 0,-37.1875 m 0,-14.47656 11.88672,0 0,9.69531 -11.88672,0 0,-9.69531" /></g><rect
       inkscape:export-ydpi="90"
       inkscape:export-xdpi="90"
       y="470.90125"
       x="476.41544"
       height="7.7633557"
       width="7.7633557"
       id="rect3428"
       style="fill:#000000;fill-opacity:1" /></g></svg>