<?xml version="1.0" encoding="UTF-8" standalone="no"?>
<!-- Generator: Adobe Illustrator 15.1.0, SVG Export Plug-In  -->

<svg
   xmlns:a="http://ns.adobe.com/AdobeSVGViewerExtensions/3.0/"
   xmlns:dc="http://purl.org/dc/elements/1.1/"
   xmlns:cc="http://creativecommons.org/ns#"
   xmlns:rdf="http://www.w3.org/1999/02/22-rdf-syntax-ns#"
   xmlns:svg="http://www.w3.org/2000/svg"
   xmlns="http://www.w3.org/2000/svg"
   xmlns:xlink="http://www.w3.org/1999/xlink"
   xmlns:sodipodi="http://sodipodi.sourceforge.net/DTD/sodipodi-0.dtd"
   xmlns:inkscape="http://www.inkscape.org/namespaces/inkscape"
   version="1.1"
   x="0px"
   y="0px"
   width="522.81641"
   height="508.51111"
   viewBox="-0.3 -0.9 522.81641 508.51111"
   overflow="visible"
   enable-background="new -0.3 -0.9 600 887"
   xml:space="preserve"
   id="svg2"
   inkscape:version="0.91 r13725"
   sodipodi:docname="opsi4institutes.svg"
   style="overflow:visible"
   inkscape:export-filename="/home/ho9052/mnt/nfs/opsiproducts/o4i/logo/opsi4institutes.png"
   inkscape:export-xdpi="90"
   inkscape:export-ydpi="90"><metadata
     id="metadata147"><rdf:RDF><cc:Work
         rdf:about=""><dc:format>image/svg+xml</dc:format><dc:type
           rdf:resource="http://purl.org/dc/dcmitype/StillImage" /><dc:title></dc:title></cc:Work></rdf:RDF></metadata><sodipodi:namedview
     pagecolor="#ffffff"
     bordercolor="#666666"
     borderopacity="1"
     objecttolerance="10"
     gridtolerance="10"
     guidetolerance="10"
     inkscape:pageopacity="0"
     inkscape:pageshadow="2"
     inkscape:window-width="1680"
     inkscape:window-height="1026"
     id="namedview145"
     showgrid="false"
     inkscape:zoom="0.68761726"
     inkscape:cx="283.68183"
     inkscape:cy="252.37207"
     inkscape:window-x="1680"
     inkscape:window-y="0"
     inkscape:window-maximized="1"
     inkscape:current-layer="svg2"
     showguides="true"
     inkscape:guide-bbox="true"
     fit-margin-top="0"
     fit-margin-left="0"
     fit-margin-right="0"
     fit-margin-bottom="0"
     inkscape:snap-page="false" /><defs
     id="defs4"><radialGradient
       inkscape:collect="always"
       xlink:href="#SVGID_5_"
       id="radialGradient3867"
       gradientUnits="userSpaceOnUse"
       gradientTransform="translate(-11.275424,78.927966)"
       cx="382.35159"
       cy="262.353"
       r="220.47279" /><radialGradient
       inkscape:collect="always"
       xlink:href="#SVGID_5_"
       id="radialGradient3992"
       gradientUnits="userSpaceOnUse"
       gradientTransform="translate(-11.275424,78.927966)"
       cx="382.35159"
       cy="262.353"
       r="220.47279" /></defs><radialGradient
     id="SVGID_1_"
     cx="559.93652"
     cy="357.0181"
     r="35.852798"
     gradientUnits="userSpaceOnUse"><stop
       offset="0"
       style="stop-color:#DAB5BC"
       id="stop25" /><stop
       offset="5.458093e-02"
       style="stop-color:#D6ABB3"
       id="stop27" /><stop
       offset="0.284"
       style="stop-color:#C68091"
       id="stop29" /><stop
       offset="0.5007"
       style="stop-color:#BA5877"
       id="stop31" /><stop
       offset="0.6986"
       style="stop-color:#B33A67"
       id="stop33" /><stop
       offset="0.8714"
       style="stop-color:#AF245E"
       id="stop35" /><stop
       offset="1"
       style="stop-color:#AE195B"
       id="stop37" /><a:midPointStop
       offset="0"
       style="stop-color:#DAB5BC" /><a:midPointStop
       offset="0.3558"
       style="stop-color:#DAB5BC" /><a:midPointStop
       offset="1"
       style="stop-color:#AE195B" /></radialGradient><radialGradient
     id="SVGID_2_"
     cx="556.74799"
     cy="293.707"
     r="19.791901"
     gradientUnits="userSpaceOnUse"><stop
       offset="0"
       style="stop-color:#C98A99"
       id="stop42" /><stop
       offset="7.645088e-02"
       style="stop-color:#C67F91"
       id="stop44" /><stop
       offset="0.3544"
       style="stop-color:#BA5877"
       id="stop46" /><stop
       offset="0.6103"
       style="stop-color:#B33A67"
       id="stop48" /><stop
       offset="0.8337"
       style="stop-color:#AF245E"
       id="stop50" /><stop
       offset="1"
       style="stop-color:#AE195B"
       id="stop52" /><a:midPointStop
       offset="0"
       style="stop-color:#C98A99" /><a:midPointStop
       offset="0.3558"
       style="stop-color:#C98A99" /><a:midPointStop
       offset="1"
       style="stop-color:#AE195B" /></radialGradient><radialGradient
     id="SVGID_3_"
     cx="62.108898"
     cy="357.0181"
     r="35.852299"
     gradientUnits="userSpaceOnUse"><stop
       offset="0"
       style="stop-color:#DAB5BC"
       id="stop57" /><stop
       offset="5.458093e-02"
       style="stop-color:#D6ABB3"
       id="stop59" /><stop
       offset="0.284"
       style="stop-color:#C68091"
       id="stop61" /><stop
       offset="0.5007"
       style="stop-color:#BA5877"
       id="stop63" /><stop
       offset="0.6986"
       style="stop-color:#B33A67"
       id="stop65" /><stop
       offset="0.8714"
       style="stop-color:#AF245E"
       id="stop67" /><stop
       offset="1"
       style="stop-color:#AE195B"
       id="stop69" /><a:midPointStop
       offset="0"
       style="stop-color:#DAB5BC" /><a:midPointStop
       offset="0.3558"
       style="stop-color:#DAB5BC" /><a:midPointStop
       offset="1"
       style="stop-color:#AE195B" /></radialGradient><radialGradient
     id="SVGID_4_"
     cx="58.9175"
     cy="293.707"
     r="19.792101"
     gradientUnits="userSpaceOnUse"><stop
       offset="0"
       style="stop-color:#C98A99"
       id="stop74" /><stop
       offset="7.645088e-02"
       style="stop-color:#C67F91"
       id="stop76" /><stop
       offset="0.3544"
       style="stop-color:#BA5877"
       id="stop78" /><stop
       offset="0.6103"
       style="stop-color:#B33A67"
       id="stop80" /><stop
       offset="0.8337"
       style="stop-color:#AF245E"
       id="stop82" /><stop
       offset="1"
       style="stop-color:#AE195B"
       id="stop84" /><a:midPointStop
       offset="0"
       style="stop-color:#C98A99" /><a:midPointStop
       offset="0.3558"
       style="stop-color:#C98A99" /><a:midPointStop
       offset="1"
       style="stop-color:#AE195B" /></radialGradient><radialGradient
     id="SVGID_5_"
     cx="382.35159"
     cy="262.353"
     r="220.47279"
     gradientUnits="userSpaceOnUse"
     gradientTransform="translate(-11.275424,78.927966)"><stop
       offset="0"
       style="stop-color:#FFFFFF"
       id="stop97" /><stop
       offset="6.640629e-02"
       style="stop-color:#FFFFFF"
       id="stop99" /><stop
       offset="0.7773"
       style="stop-color:#BFC6E0"
       id="stop101" /><stop
       offset="1"
       style="stop-color:#BFC6E0"
       id="stop103" /><a:midPointStop
       offset="0"
       style="stop-color:#FFFFFF" /><a:midPointStop
       offset="0.5"
       style="stop-color:#FFFFFF" /><a:midPointStop
       offset="6.640629e-02"
       style="stop-color:#FFFFFF" /><a:midPointStop
       offset="0.5"
       style="stop-color:#FFFFFF" /><a:midPointStop
       offset="0.7773"
       style="stop-color:#BFC6E0" /><a:midPointStop
       offset="0.5"
       style="stop-color:#BFC6E0" /><a:midPointStop
       offset="1"
       style="stop-color:#BFC6E0" /></radialGradient><radialGradient
     id="SVGID_6_"
     cx="313"
     cy="82.427696"
     r="35.856701"
     gradientUnits="userSpaceOnUse"><stop
       offset="0"
       style="stop-color:#DAB5BC"
       id="stop114" /><stop
       offset="5.458093e-02"
       style="stop-color:#D6ABB3"
       id="stop116" /><stop
       offset="0.284"
       style="stop-color:#C68091"
       id="stop118" /><stop
       offset="0.5007"
       style="stop-color:#BA5877"
       id="stop120" /><stop
       offset="0.6986"
       style="stop-color:#B33A67"
       id="stop122" /><stop
       offset="0.8714"
       style="stop-color:#AF245E"
       id="stop124" /><stop
       offset="1"
       style="stop-color:#AE195B"
       id="stop126" /><a:midPointStop
       offset="0"
       style="stop-color:#DAB5BC" /><a:midPointStop
       offset="0.3558"
       style="stop-color:#DAB5BC" /><a:midPointStop
       offset="1"
       style="stop-color:#AE195B" /></radialGradient><radialGradient
     id="SVGID_7_"
     cx="309.8154"
     cy="19.127001"
     r="19.790501"
     gradientUnits="userSpaceOnUse"><stop
       offset="0"
       style="stop-color:#C98A99"
       id="stop131" /><stop
       offset="7.645088e-02"
       style="stop-color:#C67F91"
       id="stop133" /><stop
       offset="0.3544"
       style="stop-color:#BA5877"
       id="stop135" /><stop
       offset="0.6103"
       style="stop-color:#B33A67"
       id="stop137" /><stop
       offset="0.8337"
       style="stop-color:#AF245E"
       id="stop139" /><stop
       offset="1"
       style="stop-color:#AE195B"
       id="stop141" /><a:midPointStop
       offset="0"
       style="stop-color:#C98A99" /><a:midPointStop
       offset="0.3558"
       style="stop-color:#C98A99" /><a:midPointStop
       offset="1"
       style="stop-color:#AE195B" /></radialGradient><g
     id="g3511"
     transform="translate(0.72714871,-0.72714871)"><text
       sodipodi:linespacing="125%"
       id="text3435-0"
       y="494.69052"
       x="-3.136457"
       style="font-style:normal;font-variant:normal;font-weight:normal;font-stretch:normal;font-size:60px;line-height:125%;font-family:Sans;-inkscape-font-specification:'Sans, Normal';text-align:start;letter-spacing:0px;word-spacing:0px;writing-mode:lr-tb;text-anchor:start;overflow:visible;fill:#1f6bae;fill-opacity:1;stroke:none;stroke-width:1px;stroke-linecap:butt;stroke-linejoin:miter;stroke-opacity:1"
       xml:space="preserve"><tspan
         style="font-style:normal;font-variant:normal;font-weight:bold;font-stretch:normal;font-size:62.5px;line-height:125%;font-family:Sans;-inkscape-font-specification:'Sans, Bold';text-align:start;writing-mode:lr-tb;text-anchor:start;fill:#1f6bae;fill-opacity:1"
         y="494.69052"
         x="-3.136457"
         id="tspan3437-0"
         sodipodi:role="line">opsi</tspan></text>
<text
       sodipodi:linespacing="125%"
       id="text3435-0-8"
       y="495.20065"
       x="142.93723"
       style="font-style:normal;font-variant:normal;font-weight:normal;font-stretch:normal;font-size:60px;line-height:125%;font-family:Sans;-inkscape-font-specification:'Sans, Normal';text-align:start;letter-spacing:0px;word-spacing:0px;writing-mode:lr-tb;text-anchor:start;overflow:visible;fill:#ae195b;fill-opacity:1;stroke:none;stroke-width:1px;stroke-linecap:butt;stroke-linejoin:miter;stroke-opacity:1"
       xml:space="preserve"><tspan
         style="font-style:normal;font-variant:normal;font-weight:bold;font-stretch:normal;font-size:62.5px;line-height:125%;font-family:Sans;-inkscape-font-specification:'Sans, Bold';text-align:start;writing-mode:lr-tb;text-anchor:start;fill:#ae195b;fill-opacity:1"
         y="495.20065"
         x="142.93723"
         id="tspan3437-0-7"
         sodipodi:role="line">4</tspan></text>
<text
       sodipodi:linespacing="125%"
       id="text3435-0-8-0"
       y="495.32178"
       x="185.89069"
       style="font-style:normal;font-variant:normal;font-weight:normal;font-stretch:normal;font-size:60px;line-height:125%;font-family:Sans;-inkscape-font-specification:'Sans, Normal';text-align:start;letter-spacing:0px;word-spacing:0px;writing-mode:lr-tb;text-anchor:start;overflow:visible;fill:#000000;fill-opacity:1;stroke:none;stroke-width:1px;stroke-linecap:butt;stroke-linejoin:miter;stroke-opacity:1"
       xml:space="preserve"><tspan
         style="font-style:normal;font-variant:normal;font-weight:bold;font-stretch:normal;font-size:62.5px;line-height:125%;font-family:Sans;-inkscape-font-specification:'Sans, Bold';text-align:start;writing-mode:lr-tb;text-anchor:start;fill:#000000;fill-opacity:1"
         y="495.32178"
         x="185.89069"
         id="tspan3437-0-7-4"
         sodipodi:role="line">institutes</tspan></text>
</g><text
     xml:space="preserve"
     style="font-size:40px;font-style:normal;font-weight:normal;line-height:125%;letter-spacing:0px;word-spacing:0px;fill:#000000;fill-opacity:1;stroke:none;font-family:Sans"
     x="228.65054"
     y="465.02856"
     id="text3039"
     sodipodi:linespacing="125%"><tspan
       sodipodi:role="line"
       id="tspan3041"
       x="228.65054"
       y="465.02856" /></text>
<g
     id="g3861"
     transform="translate(-33.428802,-155.15937)"
     inkscape:export-xdpi="90"
     inkscape:export-ydpi="90"><path
       inkscape:connector-curvature="0"
       style="clip-rule:evenodd;fill:url(#radialGradient3992);fill-rule:evenodd"
       id="path105"
       d="m 293.92458,304.42797 c -67.2,0 -121.7,54.5 -121.7,121.7 0,67.2 54.5,121.7 121.7,121.7 67.2,0 121.7,-54.5 121.7,-121.7 0,-67.2 -54.4,-121.7 -121.7,-121.7 z" /><path
       style="fill:#ae195b"
       inkscape:connector-curvature="0"
       id="path107"
       d="m 277.92458,361.12797 c -13.2,1.2 -16.6,0.9 -18.9,-0.8 -2.2,-1.5 -4.7,-4.2 -4.7,-6.4 7.5,-8.4 16.1,-12 33.9,-14.4 15,-2.1 44.7,-4 67.9,9.9 1.3,4.5 2.3,12.3 2.4,20.3 0.2,32.4 -10.9,65.3 -17.3,79.2 -1.5,0.8 -2,1.1 -3.3,2.3 -1.3,1.2 -2.1,2.2 -3.4,3.1 -6.7,4.4 -24,7.9 -37.6,7.8 -18,-0.2 -22.4,-2.3 -36.3,-5.9 -4.9,-1.2 -11.3,-4.6 -12.4,-3.5 -18,-6.8 -23.5,-46.5 -23.9,-57.7 -0.7,-18 4.3,-46.2 16,-54.7 5,-3.7 15.2,-4.4 15.2,-3.3 0.1,2.5 -7.5,22.7 -9,28.4 -6.6,25.2 0.1,54.7 0.4,62 10.1,3.4 34.1,11.8 57.1,9 9,-1.1 21.5,-4.7 22.6,-5.2 0,0 2.9,-18.3 5.1,-33.7 1.7,-12.2 5,-32.9 5,-32.9 0,0 -32.4,-5.9 -58.8,-3.5 z" /><path
       style="fill:#ae195b"
       inkscape:connector-curvature="0"
       id="path109"
       d="m 218.12458,481.92797 c -1.5,0 -10.9,5.6 -10.9,10.4 0.9,9.8 60.7,34.2 103.6,29.6 56.5,-6 45.2,-16 67.5,-28.8 -0.1,-2.4 1.9,-6.5 0,-7.8 -1.1,-0.7 -4.5,-0.5 -5.6,-0.4 0,0 -40.2,8.2 -81.7,6.9 -35.8,-1.1 -65.2,-9.8 -72.9,-9.9 z" /><path
       style="fill:#1f6bae"
       inkscape:connector-curvature="0"
       id="path111"
       d="m 473.32458,428.92797 c 0,0 -16.6,-11.2 -28.7,-15.7 -4.1,-1.5 -8,-2.6 -11.5,-3.4 -7.6,-63.6 -57.3,-114.2 -120.4,-123.2 -1,-3.4 -2.2,-7.2 -3.7,-11.2 -4.5,-12.1 -13.9,-28.7 -13.9,-28.7 0,0 -2.7,3.1 -5.9,8.5 -2.1,3.4 -10.3,18.9 -14.7,31.2 -65,8.3 -116.2,60.7 -122.7,126.2 -2.7,0.8 -5.7,1.8 -8.8,2.9 -12.1,4.5 -28.7,14 -28.7,14 0,0 3.1,2.7 8.5,5.9 3.3,2 18.1,9.9 30.2,14.3 11,67.2 69.3,118.5 139.6,118.5 70.2,0 128.4,-51.1 139.6,-118.2 12.4,-4.2 29.1,-13 32.6,-15.2 5.4,-3.3 8.5,-5.9 8.5,-5.9 z m -179.4,118.9 c -67.2,0 -121.7,-54.5 -121.7,-121.7 0,-67.2 54.5,-121.7 121.7,-121.7 67.2,0 121.7,54.5 121.7,121.7 0,67.2 -54.4,121.7 -121.7,121.7 z" /></g><g
     style="font-style:normal;font-weight:normal;font-size:40px;line-height:125%;font-family:Sans;letter-spacing:0px;word-spacing:0px;fill:#ae195b;fill-opacity:1;stroke:none"
     id="text3929"
     inkscape:export-xdpi="90"
     inkscape:export-ydpi="90"
     transform="translate(-22.712418,4)"><path
       inkscape:connector-curvature="0"
       d="m 279.72929,14.578514 -20.60546,30.517578 20.60546,0 0,-30.517578 m -3.125,-15.47851553 20.89844,0 0,45.99609353 10.40039,0 0,13.623047 -10.40039,0 0,13.28125 -17.77344,0 0,-13.28125 -32.32421,0 0,-16.113281 29.19921,-43.50585953"
       style="font-weight:bold;font-size:100px;-inkscape-font-specification:'Sans Bold';fill:#ae195b"
       id="path3095" /></g><g
     style="font-style:normal;font-weight:normal;font-size:40px;line-height:125%;font-family:Sans;letter-spacing:0px;word-spacing:0px;fill:#1f6bae;fill-opacity:1;stroke:none"
     id="text3929-2"
     inkscape:export-xdpi="90"
     inkscape:export-ydpi="90"
     transform="translate(-14.712418,0)"><path
       inkscape:connector-curvature="0"
       d="m 51.062405,256.14984 c -3.873729,4e-5 -6.835965,1.39978 -8.886719,4.19922 -2.018253,2.76696 -3.027366,6.77087 -3.027344,12.01172 -2.2e-5,5.24091 1.009091,9.26108 3.027344,12.06055 2.050754,2.76694 5.01299,4.1504 8.886719,4.15039 3.808555,10e-6 6.721964,-1.38345 8.740234,-4.15039 2.018184,-2.79947 3.027298,-6.81964 3.027344,-12.06055 -4.6e-5,-5.24085 -1.00916,-9.24476 -3.027344,-12.01172 -2.01827,-2.79944 -4.931679,-4.19918 -8.740234,-4.19922 m 0,-12.5 c 9.407508,6e-5 16.747995,2.53912 22.021484,7.61719 5.305928,5.07817 7.95892,12.10941 7.958984,21.09375 -6.4e-5,8.98439 -2.653056,16.01564 -7.958984,21.09375 -5.273489,5.07812 -12.613976,7.61718 -22.021484,7.61719 -9.44013,-1e-5 -16.829445,-2.53907 -22.167969,-7.61719 -5.305997,-5.07811 -7.958989,-12.10936 -7.958984,-21.09375 -5e-6,-8.98434 2.652987,-16.01558 7.958984,-21.09375 5.338524,-5.07807 12.727839,-7.61713 22.167969,-7.61719"
       style="font-weight:bold;font-size:100px;-inkscape-font-specification:'Sans Bold';fill:#1f6bae"
       id="path3092" /></g><g
     style="font-style:normal;font-weight:normal;font-size:40px;line-height:125%;font-family:Sans;letter-spacing:0px;word-spacing:0px;fill:#000000;fill-opacity:1;stroke:none"
     id="text3929-1"
     inkscape:export-xdpi="90"
     inkscape:export-ydpi="90"
     transform="translate(-18.712418,0)"><path
       inkscape:connector-curvature="0"
       d="m 483.80048,256.41034 17.48046,0 0,54.6875 -17.48046,0 0,-54.6875 m 0,-21.28906 17.48046,0 0,14.25781 -17.48046,0 0,-14.25781"
       style="font-weight:bold;font-size:100px;-inkscape-font-specification:'Sans Bold';fill:#000000"
       id="path3098" /></g></svg>